<svg xmlns="http://www.w3.org/2000/svg" viewBox="0 0 1200 630">
  <defs>
    <linearGradient id="bg" x1="0" y1="0" x2="1" y2="1">
      <stop offset="0" stop-color="#141414"/>
      <stop offset="1" stop-color="#090909"/>
    </linearGradient>
  </defs>
  <rect width="1200" height="630" fill="url(#bg)"/>
  <g opacity="0.05" fill="none" stroke="#d9b96a" stroke-width="3">
    <line x1="-60" y1="630" x2="260" y2="0"/>
    <line x1="40" y1="630" x2="360" y2="0"/>
    <line x1="140" y1="630" x2="460" y2="0"/>
    <line x1="240" y1="630" x2="560" y2="0"/>
    <line x1="340" y1="630" x2="660" y2="0"/>
    <line x1="440" y1="630" x2="760" y2="0"/>
    <line x1="540" y1="630" x2="860" y2="0"/>
    <line x1="640" y1="630" x2="960" y2="0"/>
    <line x1="740" y1="630" x2="1060" y2="0"/>
    <line x1="840" y1="630" x2="1160" y2="0"/>
    <line x1="940" y1="630" x2="1260" y2="0"/>
    <line x1="1040" y1="630" x2="1360" y2="0"/>
    <line x1="1140" y1="630" x2="1460" y2="0"/>
    <line x1="1240" y1="630" x2="1560" y2="0"/>
  </g>
  <rect x="0" y="0" width="1200" height="4" fill="#d9b96a"/>
  <rect x="0" y="626" width="1200" height="4" fill="#d9b96a"/>
  <text x="60" y="120" font-family="monospace" font-size="28" letter-spacing="8" fill="#d9b96a" opacity="0.75">THE HEAT CHART — DROP REPORT</text>
  <text x="60" y="255" font-family="Arial Black, Arial, sans-serif" font-size="92" font-weight="900" fill="#ece5d3" letter-spacing="-2">AUGUST 2026</text>
  <text x="60" y="360" font-family="Arial Black, Arial, sans-serif" font-size="92" font-weight="900" fill="#ece5d3" letter-spacing="-2">DROP CALENDAR</text>
  <text x="60" y="560" font-family="monospace" font-size="30" fill="#d9b96a" opacity="0.8">EVERY RELEASE THAT MATTERS</text>
</svg>